<svg width="33" height="37" viewBox="0 0 33 37" fill="none" xmlns="http://www.w3.org/2000/svg">
<path fill-rule="evenodd" clip-rule="evenodd" d="M32.303 9.684L32.0519 9.23556C31.728 8.69324 31.2712 8.24252 30.7246 7.92612L18.6885 0.984313C18.1435 0.668175 17.5249 0.501138 16.8948 0.5H16.3746C15.7445 0.501138 15.1259 0.668175 14.5808 0.984313L2.54487 7.94406C2.00132 8.25836 1.5498 8.70995 1.23544 9.2535L0.984313 9.70194C0.668158 10.2469 0.50112 10.8656 0.5 11.4956V25.3972C0.50112 26.0273 0.668158 26.6459 0.984313 27.1909L1.23544 27.6393C1.55793 28.1766 2.00762 28.6263 2.54487 28.9488L14.5988 35.8905C15.1411 36.2132 15.7616 36.3808 16.3925 36.3748H16.8948C17.5249 36.3737 18.1435 36.2066 18.6885 35.8905L30.7246 28.9309C31.2735 28.6236 31.7267 28.1704 32.0339 27.6214L32.303 27.173C32.6154 26.6264 32.7822 26.0087 32.7873 25.3792V11.4777C32.7863 10.8477 32.6192 10.229 32.303 9.684ZM16.3746 4.08741H16.8948L27.4062 10.1503L16.6437 16.3566L5.88125 10.1503L16.3746 4.08741ZM18.4374 31.8906L28.9308 25.8277L29.1998 25.3793V13.2536L18.4374 19.4779V31.8906Z" fill="#2E3F49"/>
</svg>
