<svg width="29" height="29" viewBox="0 0 29 29" fill="none" xmlns="http://www.w3.org/2000/svg">
<path fill-rule="evenodd" clip-rule="evenodd" d="M14.5001 2.41666C7.82664 2.41666 2.41675 7.82655 2.41675 14.5C2.41675 21.1734 7.82664 26.5833 14.5001 26.5833C21.1735 26.5833 26.5834 21.1734 26.5834 14.5C26.5834 11.2953 25.3103 8.22185 23.0443 5.95578C20.7782 3.68972 17.7048 2.41666 14.5001 2.41666ZM14.5001 24.1667C9.16133 24.1667 4.83341 19.8388 4.83341 14.5C4.83341 9.16123 9.16133 4.83332 14.5001 4.83332C19.8389 4.83332 24.1667 9.16123 24.1667 14.5C24.1667 17.0637 23.1482 19.5225 21.3355 21.3354C19.5226 23.1482 17.0638 24.1667 14.5001 24.1667ZM15.5634 7.85416V14.065L19.9497 18.4512C20.1814 18.6902 20.1814 19.0701 19.9497 19.3092L19.3092 19.9496C19.0702 20.1813 18.6903 20.1813 18.4513 19.9496L13.618 15.1162C13.5073 15.0025 13.4427 14.8519 13.4367 14.6933V7.85416C13.4367 7.52049 13.7073 7.24999 14.0409 7.24999H14.9592C15.2929 7.24999 15.5634 7.52049 15.5634 7.85416Z" fill="#2E3F49"/>
</svg>
