<svg width="192" height="140" viewBox="0 0 192 140" fill="none" xmlns="http://www.w3.org/2000/svg">
<path d="M14.0781 16.5817L18.4759 20.8937L28.9481 10.2133" stroke="#2ED5A4" stroke-width="2.63962" stroke-linecap="round"/>
<path d="M175.095 60.5753L179.493 64.8874L189.965 54.207" stroke="#2ED5A4" stroke-width="2.63962" stroke-linecap="round"/>
<path fill-rule="evenodd" clip-rule="evenodd" d="M26.8564 71.2854C26.8564 38.0095 53.8318 11.034 87.1078 11.034C120.384 11.034 147.359 38.0095 147.359 71.2854C147.359 88.0207 140.851 105.494 126.675 116.69C112.667 127.754 90.6898 133.063 58.8892 124.78C58.2322 124.447 57.4401 124.389 56.7036 124.687L41.0159 131.037L45.2434 116.349C45.5623 115.241 45.1228 114.094 44.2316 113.464C33.7578 102.597 26.8564 87.486 26.8564 71.2854ZM39.7363 116.396C28.7953 104.699 21.5771 88.6173 21.5771 71.2854C21.5771 35.0938 50.9162 5.75476 87.1078 5.75476C123.299 5.75476 152.638 35.0938 152.638 71.2854C152.638 89.2838 145.643 108.436 129.947 120.833C114.333 133.165 90.5926 138.441 57.7802 129.947L37.9696 137.965L32.9425 140L34.4426 134.788L39.7363 116.396Z" fill="#00EDAA"/>
<path d="M51.9124 60.4535C51.9124 58.8358 52.231 57.234 52.85 55.7395C53.4691 54.245 54.3764 52.887 55.5203 51.7432C56.6641 50.5993 58.0221 49.692 59.5166 49.0729C61.0111 48.4539 62.6129 48.1353 64.2306 48.1353C65.8482 48.1353 67.4501 48.4539 68.9446 49.0729C70.4391 49.692 71.797 50.5993 72.9409 51.7432C74.0848 52.887 74.9921 54.245 75.6112 55.7395C76.2302 57.234 76.5488 58.8358 76.5488 60.4535L72.8534 60.4535C72.8534 59.3211 72.6303 58.1999 72.197 57.1537C71.7637 56.1075 71.1285 55.157 70.3278 54.3563C69.5271 53.5556 68.5765 52.9204 67.5304 52.4871C66.4842 52.0538 65.363 51.8307 64.2306 51.8307C63.0982 51.8307 61.977 52.0538 60.9308 52.4871C59.8846 52.9204 58.9341 53.5556 58.1334 54.3563C57.3327 55.157 56.6975 56.1075 56.2642 57.1537C55.8309 58.1999 55.6078 59.3211 55.6078 60.4535L51.9124 60.4535Z" fill="#00EDAA" stroke="#00EDAA" stroke-width="1.69612"/>
<path d="M107.345 60.4535C107.345 58.8358 107.664 57.234 108.283 55.7395C108.902 54.245 109.809 52.887 110.953 51.7432C112.097 50.5993 113.455 49.692 114.949 49.0729C116.444 48.4539 118.046 48.1353 119.663 48.1353C121.281 48.1353 122.883 48.4539 124.377 49.0729C125.872 49.692 127.23 50.5993 128.374 51.7432C129.517 52.887 130.425 54.245 131.044 55.7395C131.663 57.234 131.981 58.8358 131.981 60.4535L128.286 60.4535C128.286 59.3211 128.063 58.1999 127.63 57.1537C127.196 56.1075 126.561 55.157 125.76 54.3563C124.96 53.5556 124.009 52.9204 122.963 52.4871C121.917 52.0538 120.796 51.8307 119.663 51.8307C118.531 51.8307 117.41 52.0538 116.363 52.4871C115.317 52.9204 114.367 53.5556 113.566 54.3563C112.765 55.157 112.13 56.1075 111.697 57.1537C111.263 58.1999 111.04 59.3211 111.04 60.4535L107.345 60.4535Z" fill="#00EDAA" stroke="#00EDAA" stroke-width="1.69612"/>
<path d="M103.825 85.9698C103.825 87.5875 103.506 89.1893 102.887 90.6838C102.268 92.1783 101.361 93.5363 100.217 94.6802C99.0732 95.824 97.7152 96.7314 96.2207 97.3504C94.7262 97.9695 93.1244 98.2881 91.5067 98.2881C89.8891 98.2881 88.2872 97.9695 86.7927 97.3504C85.2982 96.7314 83.9403 95.824 82.7964 94.6802C81.6525 93.5363 80.7452 92.1783 80.1261 90.6838C79.5071 89.1893 79.1885 87.5875 79.1885 85.9698H82.8839C82.8839 87.1022 83.107 88.2235 83.5403 89.2696C83.9737 90.3158 84.6088 91.2664 85.4095 92.0671C86.2102 92.8678 87.1608 93.5029 88.2069 93.9362C89.2531 94.3696 90.3744 94.5926 91.5067 94.5926C92.6391 94.5926 93.7603 94.3696 94.8065 93.9362C95.8527 93.5029 96.8032 92.8678 97.6039 92.0671C98.4046 91.2664 99.0398 90.3158 99.4731 89.2696C99.9064 88.2235 100.129 87.1022 100.129 85.9698H103.825Z" fill="#00EDAA" stroke="#00EDAA" stroke-width="1.69612"/>
<rect y="63.0931" width="107.345" height="19.6505" rx="9.82526" fill="#00EDAA" fill-opacity="0.13"/>
<rect x="38.1279" y="101.263" width="107.345" height="19.6505" rx="9.82526" fill="#00EDAA" fill-opacity="0.13"/>
<rect x="72.3672" y="82.2827" width="107.345" height="19.6505" rx="9.82526" fill="#00EDAA" fill-opacity="0.13"/>
<circle cx="152.716" cy="7.71918" r="5.71918" stroke="#2ED5A4" stroke-width="3.76538"/>
<circle cx="18.1602" cy="116.273" r="4.59082" stroke="#2ED5A4" stroke-width="2.63962"/>
<circle cx="154.414" cy="120.231" r="4.02545" stroke="#2ED5A4" stroke-width="2.63962"/>
</svg>
