<svg width="190" height="140" viewBox="0 0 190 140" fill="none" xmlns="http://www.w3.org/2000/svg">
<path fill-rule="evenodd" clip-rule="evenodd" d="M147.358 71.2855C147.358 38.0096 120.383 11.0341 87.1071 11.0341C53.8312 11.0341 26.8557 38.0096 26.8557 71.2855C26.8557 88.0208 33.3639 105.494 47.5403 116.691C61.5479 127.754 83.5251 133.063 115.326 124.78C115.983 124.447 116.775 124.389 117.511 124.687L133.199 131.037L128.971 116.349C128.652 115.241 129.092 114.094 129.983 113.464C140.457 102.598 147.358 87.4861 147.358 71.2855ZM134.479 116.396C145.42 104.699 152.638 88.6174 152.638 71.2855C152.638 35.0939 123.299 5.75488 87.1071 5.75488C50.9155 5.75488 21.5765 35.0939 21.5765 71.2855C21.5765 89.2839 28.5714 108.436 44.2682 120.833C59.8818 133.165 83.6222 138.441 116.435 129.947L136.245 137.965L141.272 140L139.772 134.788L134.479 116.396Z" fill="#FF005C"/>
<path d="M51.9124 46.4535C51.9124 48.0711 52.231 49.673 52.85 51.1675C53.4691 52.662 54.3764 54.0199 55.5203 55.1638C56.6641 56.3077 58.0221 57.215 59.5166 57.8341C61.0111 58.4531 62.6129 58.7717 64.2306 58.7717C65.8482 58.7717 67.4501 58.4531 68.9446 57.8341C70.4391 57.215 71.797 56.3077 72.9409 55.1638C74.0848 54.0199 74.9921 52.662 75.6112 51.1675C76.2302 49.673 76.5488 48.0711 76.5488 46.4535L72.8534 46.4535C72.8534 47.5858 72.6303 48.7071 72.197 49.7533C71.7637 50.7994 71.1285 51.75 70.3278 52.5507C69.5271 53.3514 68.5765 53.9866 67.5304 54.4199C66.4842 54.8532 65.363 55.0763 64.2306 55.0763C63.0982 55.0763 61.977 54.8532 60.9308 54.4199C59.8846 53.9866 58.9341 53.3514 58.1334 52.5507C57.3327 51.75 56.6975 50.7994 56.2642 49.7533C55.8309 48.7071 55.6078 47.5858 55.6078 46.4535L51.9124 46.4535Z" fill="#FF005C" stroke="#FF005C" stroke-width="1.69612"/>
<path d="M107.345 46.4535C107.345 48.0711 107.664 49.673 108.283 51.1675C108.902 52.662 109.809 54.0199 110.953 55.1638C112.097 56.3077 113.455 57.215 114.949 57.8341C116.444 58.4531 118.046 58.7717 119.663 58.7717C121.281 58.7717 122.883 58.4531 124.377 57.8341C125.872 57.215 127.23 56.3077 128.374 55.1638C129.517 54.0199 130.425 52.662 131.044 51.1675C131.663 49.673 131.981 48.0711 131.981 46.4535L128.286 46.4535C128.286 47.5858 128.063 48.7071 127.63 49.7533C127.196 50.7994 126.561 51.75 125.76 52.5507C124.96 53.3514 124.009 53.9866 122.963 54.4199C121.917 54.8532 120.796 55.0763 119.663 55.0763C118.531 55.0763 117.41 54.8532 116.363 54.4199C115.317 53.9866 114.367 53.3514 113.566 52.5507C112.765 51.75 112.13 50.7994 111.697 49.7533C111.263 48.7071 111.04 47.5858 111.04 46.4535L107.345 46.4535Z" fill="#FF005C" stroke="#FF005C" stroke-width="1.69612"/>
<path d="M77.0002 98.3182C77.0002 96.7006 77.3189 95.0988 77.9379 93.6043C78.557 92.1097 79.4643 90.7518 80.6082 89.6079C81.752 88.4641 83.11 87.5567 84.6045 86.9377C86.099 86.3186 87.7008 86 89.3185 86C90.9361 86 92.538 86.3186 94.0325 86.9377C95.527 87.5567 96.8849 88.4641 98.0288 89.6079C99.1726 90.7518 100.08 92.1097 100.699 93.6043C101.318 95.0988 101.637 96.7006 101.637 98.3182H97.9412C97.9412 97.1859 97.7182 96.0646 97.2849 95.0185C96.8515 93.9723 96.2164 93.0217 95.4157 92.221C94.615 91.4203 93.6644 90.7852 92.6183 90.3518C91.5721 89.9185 90.4508 89.6955 89.3185 89.6955C88.1861 89.6955 87.0649 89.9185 86.0187 90.3518C84.9725 90.7852 84.022 91.4203 83.2213 92.221C82.4206 93.0217 81.7854 93.9723 81.3521 95.0185C80.9188 96.0646 80.6957 97.1859 80.6957 98.3182H77.0002Z" fill="#FF005C" stroke="#FF005C" stroke-width="1.69612"/>
<rect y="63.093" width="107.345" height="19.6505" rx="9.82526" fill="#FF005C" fill-opacity="0.13"/>
<rect x="38.1279" y="101.263" width="107.345" height="19.6505" rx="9.82526" fill="#FF005C" fill-opacity="0.13"/>
<rect x="72.3672" y="82.2827" width="107.345" height="19.6505" rx="9.82526" fill="#FF005C" fill-opacity="0.13"/>
<rect x="12" y="111" width="11" height="11" rx="3" stroke="#FF005C" stroke-width="3"/>
<rect x="167.688" y="111" width="9" height="10" rx="3" transform="rotate(27.955 167.688 111)" stroke="#FF005C" stroke-width="3"/>
<rect x="145.73" y="8.88367" width="9" height="10" rx="3" transform="rotate(-59.6558 145.73 8.88367)" stroke="#FF005C" stroke-width="3"/>
<path d="M24.5072 22.9189L20.9717 19.3834L17.4361 22.9189C17.2486 23.1065 16.9943 23.2118 16.729 23.2118C16.4638 23.2118 16.2095 23.1065 16.0219 22.9189C15.8344 22.7314 15.729 22.4771 15.729 22.2118C15.729 21.9466 15.8344 21.6923 16.0219 21.5047L19.5575 17.9692L16.0219 14.4337C15.8344 14.2461 15.729 13.9918 15.729 13.7266C15.729 13.4613 15.8344 13.207 16.0219 13.0194C16.2095 12.8319 16.4638 12.7266 16.729 12.7266C16.9943 12.7266 17.2486 12.8319 17.4361 13.0194L20.9717 16.555L24.5072 13.0194C24.6947 12.8319 24.9491 12.7266 25.2143 12.7266C25.4795 12.7266 25.7339 12.8319 25.9214 13.0194C26.109 13.207 26.2143 13.4613 26.2143 13.7266C26.2143 13.9918 26.109 14.2461 25.9214 14.4337L22.3859 17.9692L25.9214 21.5047C26.109 21.6923 26.2143 21.9466 26.2143 22.2118C26.2143 22.4771 26.109 22.7314 25.9214 22.9189C25.7339 23.1065 25.4795 23.2118 25.2143 23.2118C24.9491 23.2118 24.6948 23.1065 24.5072 22.9189Z" fill="#FF005C"/>
<path d="M183.435 67.8492L179.899 64.3137L176.364 67.8492C176.176 68.0368 175.922 68.1421 175.657 68.1421C175.392 68.1421 175.137 68.0368 174.95 67.8492C174.762 67.6617 174.657 67.4074 174.657 67.1421C174.657 66.8769 174.762 66.6226 174.95 66.435L178.485 62.8995L174.95 59.364C174.762 59.1764 174.657 58.9221 174.657 58.6569C174.657 58.3916 174.762 58.1373 174.95 57.9497C175.137 57.7622 175.392 57.6569 175.657 57.6569C175.922 57.6569 176.176 57.7622 176.364 57.9497L179.899 61.4853L183.435 57.9497C183.622 57.7622 183.877 57.6569 184.142 57.6569C184.407 57.6569 184.662 57.7622 184.849 57.9497C185.037 58.1373 185.142 58.3916 185.142 58.6569C185.142 58.9221 185.037 59.1764 184.849 59.364L181.314 62.8995L184.849 66.435C185.037 66.6226 185.142 66.8769 185.142 67.1421C185.142 67.4074 185.037 67.6617 184.849 67.8492C184.662 68.0368 184.407 68.1421 184.142 68.1421C183.877 68.1421 183.622 68.0368 183.435 67.8492Z" fill="#FF005C"/>
</svg>
