<svg width="24" height="25" viewBox="0 0 24 25" fill="none" xmlns="http://www.w3.org/2000/svg">
<path fill-rule="evenodd" clip-rule="evenodd" d="M18 2.5H6C3.79086 2.5 2 4.29086 2 6.5V22C2 22.2761 2.22386 22.5 2.5 22.5C2.63212 22.4992 2.75833 22.4451 2.85 22.35L5.85 19.35C6.42433 18.7908 7.19856 18.4847 8 18.5H18C20.2091 18.5 22 16.7091 22 14.5V6.5C22 4.29086 20.2091 2.5 18 2.5ZM14 13C14 13.2761 13.7761 13.5 13.5 13.5H6.5C6.22386 13.5 6 13.2761 6 13V12C6 11.7239 6.22386 11.5 6.5 11.5H13.5C13.7761 11.5 14 11.7239 14 12V13ZM17.5 9.5C17.7761 9.5 18 9.27614 18 9V8C18 7.72386 17.7761 7.5 17.5 7.5H6.5C6.22386 7.5 6 7.72386 6 8V9C6 9.27614 6.22386 9.5 6.5 9.5H17.5Z" fill="#2E3F49"/>
</svg>
