<svg width="29" height="29" viewBox="0 0 29 29" fill="none" xmlns="http://www.w3.org/2000/svg">
<path d="M14.5003 2.41608C9.67427 2.41608 5.74805 6.34231 5.74805 11.1683C5.74805 17.1575 13.5804 25.9499 13.9139 26.3213C14.2271 26.6701 14.774 26.6695 15.0867 26.3213C15.4201 25.9499 23.2525 17.1575 23.2525 11.1683C23.2524 6.34231 19.3263 2.41608 14.5003 2.41608ZM14.5003 15.5718C12.0722 15.5718 10.0969 13.5964 10.0969 11.1683C10.0969 8.74019 12.0722 6.76484 14.5003 6.76484C16.9283 6.76484 18.9037 8.74024 18.9037 11.1683C18.9037 13.5964 16.9283 15.5718 14.5003 15.5718Z" fill="#2E3F49"/>
</svg>
