<svg width="29" height="28" viewBox="0 0 29 28" fill="none" xmlns="http://www.w3.org/2000/svg">
<path fill-rule="evenodd" clip-rule="evenodd" d="M24.685 8.30668L24.5217 8.01501C24.311 7.66231 24.0138 7.36918 23.6583 7.16334L15.83 2.64834C15.4756 2.44272 15.0732 2.33407 14.6633 2.33334H14.325C13.9151 2.33407 13.5128 2.44272 13.1583 2.64834L5.33 7.17501C4.97646 7.37948 4.6828 7.67314 4.47833 8.02668L4.315 8.31834C4.10937 8.67282 4.00072 9.07521 4 9.48501V18.5267C4.00072 18.9365 4.10937 19.3389 4.315 19.6933L4.47833 19.985C4.68809 20.3344 4.98057 20.6269 5.33 20.8367L13.17 25.3517C13.5227 25.5616 13.9262 25.6705 14.3367 25.6667H14.6633C15.0732 25.666 15.4756 25.5574 15.83 25.3517L23.6583 20.825C24.0153 20.6252 24.3101 20.3303 24.51 19.9733L24.685 19.6817C24.8881 19.3262 24.9966 18.9245 25 18.515V9.47334C24.9993 9.06354 24.8907 8.66116 24.685 8.30668ZM14.325 4.66668H14.6633L21.5 8.61001L14.5 12.6467L7.5 8.61001L14.325 4.66668ZM15.6667 22.75L22.4917 18.8067L22.6667 18.515V10.6283L15.6667 14.6767V22.75Z" fill="#2E3F49"/>
</svg>
