<svg width="56" height="56" viewBox="0 0 56 56" fill="none" xmlns="http://www.w3.org/2000/svg">
<circle cx="28" cy="28" r="28" fill="#F4F7FE"/>
<g clip-path="url(#clip0_4540_2496)">
<path d="M31.2503 16.0833H19.3337C18.142 16.0833 17.167 17.0583 17.167 18.25V32.3333C17.167 32.9291 17.6545 33.4166 18.2503 33.4166C18.8462 33.4166 19.3337 32.9291 19.3337 32.3333V19.3333C19.3337 18.7375 19.8212 18.25 20.417 18.25H31.2503C31.8462 18.25 32.3337 17.7625 32.3337 17.1666C32.3337 16.5708 31.8462 16.0833 31.2503 16.0833ZM31.8895 21.0558L37.122 26.2883C37.5228 26.6891 37.7503 27.2416 37.7503 27.8158V37.75C37.7503 38.9417 36.7753 39.9166 35.5837 39.9166H23.6562C22.4645 39.9166 21.5003 38.9417 21.5003 37.75L21.5112 22.5833C21.5112 21.3916 22.4753 20.4166 23.667 20.4166H30.3512C30.9253 20.4166 31.4778 20.6441 31.8895 21.0558ZM31.2503 28H36.1253L30.167 22.0416V26.9166C30.167 27.5125 30.6545 28 31.2503 28Z" fill="#2ED5A4"/>
</g>
<defs>
<clipPath id="clip0_4540_2496">
<rect width="26" height="26" fill="white" transform="translate(15 15)"/>
</clipPath>
</defs>
</svg>
