<svg width="56" height="56" viewBox="0 0 56 56" fill="none" xmlns="http://www.w3.org/2000/svg">
<circle cx="28" cy="28" r="28" fill="#F4F7FE"/>
<g clip-path="url(#clip0_4566_2262)">
<path d="M20.2839 24.3136H20.5576C21.6113 24.3136 22.4734 25.1757 22.4734 26.2293V35.8082C22.4734 36.8618 21.6113 37.7239 20.5576 37.7239H20.2839C19.2303 37.7239 18.3682 36.8618 18.3682 35.8082V26.2293C18.3682 25.1757 19.2303 24.3136 20.2839 24.3136ZM27.947 18.5663C29.0007 18.5663 29.8627 19.4284 29.8627 20.482V35.8082C29.8627 36.8618 29.0007 37.7239 27.947 37.7239C26.8933 37.7239 26.0312 36.8618 26.0312 35.8082V20.482C26.0312 19.4284 26.8933 18.5663 27.947 18.5663ZM35.61 29.5135C36.6637 29.5135 37.5258 30.3756 37.5258 31.4293V35.8082C37.5258 36.8618 36.6637 37.7239 35.61 37.7239C34.5564 37.7239 33.6943 36.8618 33.6943 35.8082V31.4293C33.6943 30.3756 34.5564 29.5135 35.61 29.5135Z" fill="#2ED5A4"/>
</g>
<defs>
<clipPath id="clip0_4566_2262">
<rect width="32.8417" height="32.8417" fill="white" transform="translate(11.5264 11.7242)"/>
</clipPath>
</defs>
</svg>
