<svg width="20" height="21" viewBox="0 0 20 21" fill="none" xmlns="http://www.w3.org/2000/svg">
<path fill-rule="evenodd" clip-rule="evenodd" d="M10.0003 2.73145C9.23894 2.73145 8.49211 2.94007 7.84095 3.33466L3.67428 5.85966C3.06157 6.23095 2.55493 6.75397 2.20331 7.37819C1.8517 8.00241 1.66698 8.70675 1.66699 9.42318V14.6665C1.66699 15.7716 2.10598 16.8314 2.88738 17.6128C3.66878 18.3942 4.72859 18.8332 5.83366 18.8332H14.167C15.2721 18.8332 16.3319 18.3942 17.1133 17.6128C17.8947 16.8314 18.3337 15.7716 18.3337 14.6665V9.42235C18.3335 8.70608 18.1487 8.00176 17.7971 7.37774C17.4455 6.75372 16.9389 6.23087 16.3264 5.85966L12.1597 3.33466C11.5086 2.94008 10.7617 2.73145 10.0003 2.73145ZM8.70471 4.76003C9.0954 4.52328 9.5435 4.39811 10.0003 4.39811C10.4572 4.39811 10.9052 4.52328 11.2959 4.76003L15.4626 7.28503C15.8301 7.50776 16.1341 7.82147 16.345 8.19589C16.556 8.57025 16.6669 8.99266 16.667 9.42235V14.6665C16.667 15.3296 16.4036 15.9654 15.9348 16.4343C15.4659 16.9031 14.83 17.1665 14.167 17.1665H13.3337V14.6665C13.3337 13.7825 12.9825 12.9346 12.3573 12.3095C11.7322 11.6844 10.8844 11.3332 10.0003 11.3332C9.11627 11.3332 8.26842 11.6844 7.6433 12.3095C7.01818 12.9346 6.66699 13.7825 6.66699 14.6665V17.1665H5.83366C5.17062 17.1665 4.53473 16.9031 4.06589 16.4343C3.59705 15.9654 3.33366 15.3296 3.33366 14.6665V9.42318C3.33365 8.99332 3.44448 8.57069 3.65545 8.19616C3.86642 7.82163 4.1704 7.50782 4.53803 7.28504L8.70471 4.76003ZM11.1788 13.488C11.4914 13.8006 11.667 14.2245 11.667 14.6665V17.1665H8.33366V14.6665C8.33366 14.2245 8.50925 13.8006 8.82181 13.488C9.13437 13.1754 9.5583 12.9999 10.0003 12.9999C10.4424 12.9999 10.8663 13.1754 11.1788 13.488Z" fill="#2E3F49"/>
</svg>
