<svg width="20" height="20" viewBox="0 0 20 20" fill="none" xmlns="http://www.w3.org/2000/svg">
<g clip-path="url(#clip0_4597_2671)">
<path d="M8.33203 7.49998C8.33203 7.01084 8.51447 6.69801 8.75399 6.49478C9.01163 6.27618 9.38483 6.14581 9.79037 6.14581C10.1959 6.14581 10.5691 6.27618 10.8267 6.49478C11.0663 6.69801 11.2487 7.01084 11.2487 7.49998C11.2487 7.86428 11.1629 8.06654 11.0631 8.21612C10.9468 8.39062 10.7937 8.52824 10.5348 8.76096L10.4829 8.80765C10.2166 9.04735 9.86617 9.37139 9.59901 9.84339C9.32368 10.3298 9.16537 10.9176 9.16537 11.6666C9.16537 12.1269 9.53846 12.5 9.9987 12.5C10.4589 12.5 10.832 12.1269 10.832 11.6666C10.832 11.1657 10.9341 10.8681 11.0494 10.6644C11.1729 10.4463 11.3433 10.2755 11.5978 10.0465C11.6207 10.0259 11.6449 10.0043 11.6701 9.98188C11.8978 9.77889 12.2097 9.50085 12.4499 9.14062C12.7408 8.70425 12.9154 8.17734 12.9154 7.49998C12.9154 6.53079 12.5249 5.74987 11.905 5.22393C11.3033 4.71336 10.5307 4.47915 9.79037 4.47915C9.05006 4.47915 8.27744 4.71336 7.6757 5.22393C7.05584 5.74987 6.66536 6.53079 6.66536 7.49998C6.66536 7.96022 7.03846 8.33331 7.4987 8.33331C7.95894 8.33331 8.33203 7.96022 8.33203 7.49998Z" fill="#2E3F49"/>
<path d="M10.6236 15.5597C10.9332 15.2192 10.9081 14.6921 10.5676 14.3825C10.2271 14.0729 9.70003 14.098 9.39043 14.4386L9.3821 14.4477C9.0725 14.7883 9.09758 15.3153 9.43812 15.6249C9.77866 15.9345 10.3057 15.9094 10.6153 15.5689L10.6236 15.5597Z" fill="#2E3F49"/>
<path fill-rule="evenodd" clip-rule="evenodd" d="M9.9987 0.833313C4.93596 0.833313 0.832031 4.93724 0.832031 9.99998C0.832031 15.0627 4.93596 19.1666 9.9987 19.1666C15.0614 19.1666 19.1654 15.0627 19.1654 9.99998C19.1654 4.93724 15.0614 0.833313 9.9987 0.833313ZM2.4987 9.99998C2.4987 5.85772 5.85644 2.49998 9.9987 2.49998C14.141 2.49998 17.4987 5.85772 17.4987 9.99998C17.4987 14.1422 14.141 17.5 9.9987 17.5C5.85644 17.5 2.4987 14.1422 2.4987 9.99998Z" fill="#2E3F49"/>
</g>
<defs>
<clipPath id="clip0_4597_2671">
<rect width="20" height="20" fill="white"/>
</clipPath>
</defs>
</svg>
