<svg width="20" height="21" viewBox="0 0 20 21" fill="none" xmlns="http://www.w3.org/2000/svg">
<g clip-path="url(#clip0_4562_2298)">
<path fill-rule="evenodd" clip-rule="evenodd" d="M8.5 3C7.09104 3 5.73978 3.55605 4.7435 4.54583C3.74721 5.5356 3.1875 6.87802 3.1875 8.27778C3.1875 9.67753 3.74721 11.02 4.7435 12.0097C4.81358 12.0794 4.88542 12.1468 4.95891 12.2121C4.04886 12.6264 3.21106 13.201 2.48959 13.9178C0.895533 15.5014 0 17.6493 0 19.8889V20.9444C0 21.5274 0.475697 22 1.0625 22C1.6493 22 2.125 21.5274 2.125 20.9444V19.8889C2.125 18.2092 2.79665 16.5983 3.99219 15.4105C5.18774 14.2228 6.80925 13.5556 8.5 13.5556C10.1908 13.5556 11.8123 14.2228 13.0078 15.4105C14.2033 16.5983 14.875 18.2092 14.875 19.8889V20.9444C14.875 21.5274 15.3507 22 15.9375 22C16.5243 22 17 21.5274 17 20.9444V19.8889C17 17.6493 16.1045 15.5014 14.5104 13.9178C13.7889 13.201 12.9511 12.6264 12.0411 12.2121C12.1146 12.1468 12.1864 12.0794 12.2565 12.0097C13.2528 11.02 13.8125 9.67753 13.8125 8.27778C13.8125 6.87802 13.2528 5.5356 12.2565 4.54583C11.2602 3.55605 9.90896 3 8.5 3ZM6.2461 6.03861C6.84387 5.44474 7.65462 5.11111 8.5 5.11111C9.34538 5.11111 10.1561 5.44474 10.7539 6.03861C11.3517 6.63247 11.6875 7.43793 11.6875 8.27778C11.6875 9.11763 11.3517 9.92308 10.7539 10.5169C10.1561 11.1108 9.34538 11.4444 8.5 11.4444C7.65462 11.4444 6.84387 11.1108 6.2461 10.5169C5.64832 9.92308 5.3125 9.11763 5.3125 8.27778C5.3125 7.43793 5.64832 6.63247 6.2461 6.03861Z" fill="#2E3F49"/>
</g>
<defs>
<clipPath id="clip0_4562_2298">
<rect width="20" height="20" fill="white" transform="translate(0 0.5)"/>
</clipPath>
</defs>
</svg>
