<svg width="20" height="20" viewBox="0 0 20 20" fill="none" xmlns="http://www.w3.org/2000/svg">
<path d="M5.83203 1.66669C5.16899 1.66669 4.53311 1.93008 4.06426 2.39892C3.59542 2.86776 3.33203 3.50365 3.33203 4.16669V15.8334C3.33203 16.4964 3.59542 17.1323 4.06426 17.6011C4.5331 18.07 5.16899 18.3334 5.83203 18.3334H14.1654C14.8284 18.3334 15.4643 18.07 15.9331 17.6011C16.402 17.1323 16.6654 16.4964 16.6654 15.8334V15C16.6654 14.5398 16.2923 14.1667 15.832 14.1667C15.3718 14.1667 14.9987 14.5398 14.9987 15V15.8334C14.9987 16.0544 14.9109 16.2663 14.7546 16.4226C14.5983 16.5789 14.3864 16.6667 14.1654 16.6667H5.83203C5.61102 16.6667 5.39906 16.5789 5.24278 16.4226C5.0865 16.2663 4.9987 16.0544 4.9987 15.8334V4.16669C4.9987 3.94567 5.0865 3.73371 5.24278 3.57743C5.39906 3.42115 5.61102 3.33335 5.83203 3.33335H14.1654C14.3864 3.33335 14.5983 3.42115 14.7546 3.57743C14.9109 3.73371 14.9987 3.94567 14.9987 4.16669V5.00002C14.9987 5.46026 15.3718 5.83335 15.832 5.83335C16.2923 5.83335 16.6654 5.46026 16.6654 5.00002V4.16669C16.6654 3.50365 16.402 2.86776 15.9331 2.39892C15.4643 1.93008 14.8284 1.66669 14.1654 1.66669H5.83203Z" fill="#D55F5A"/>
<path d="M13.9213 6.91076C13.5958 6.58533 13.0682 6.58533 12.7428 6.91076C12.4173 7.2362 12.4173 7.76384 12.7428 8.08928L13.8202 9.16669H9.9987C9.53846 9.16669 9.16536 9.53978 9.16536 10C9.16536 10.4603 9.53846 10.8334 9.9987 10.8334H13.8202L12.7428 11.9108C12.4173 12.2362 12.4173 12.7638 12.7428 13.0893C13.0682 13.4147 13.5958 13.4147 13.9213 13.0893L16.4213 10.5893C16.7467 10.2638 16.7467 9.7362 16.4213 9.41076L13.9213 6.91076Z" fill="#D55F5A"/>
</svg>
