<svg width="20" height="21" viewBox="0 0 20 21" fill="none" xmlns="http://www.w3.org/2000/svg">
<path fill-rule="evenodd" clip-rule="evenodd" d="M9.9987 7.16671C9.11464 7.16671 8.2668 7.5179 7.64167 8.14302C7.01655 8.76814 6.66536 9.61599 6.66536 10.5C6.66536 11.3841 7.01655 12.2319 7.64167 12.8571C8.2668 13.4822 9.11464 13.8334 9.9987 13.8334C10.8828 13.8334 11.7306 13.4822 12.3557 12.8571C12.9808 12.2319 13.332 11.3841 13.332 10.5C13.332 9.61599 12.9808 8.76814 12.3557 8.14302C11.7306 7.5179 10.8828 7.16671 9.9987 7.16671ZM8.82019 9.32153C9.13275 9.00897 9.55667 8.83337 9.9987 8.83337C10.4407 8.83337 10.8646 9.00897 11.1772 9.32153C11.4898 9.63409 11.6654 10.058 11.6654 10.5C11.6654 10.9421 11.4898 11.366 11.1772 11.6786C10.8646 11.9911 10.4407 12.1667 9.9987 12.1667C9.55667 12.1667 9.13275 11.9911 8.82019 11.6786C8.50763 11.366 8.33203 10.9421 8.33203 10.5C8.33203 10.058 8.50763 9.63409 8.82019 9.32153Z" fill="#2E3F49"/>
<path fill-rule="evenodd" clip-rule="evenodd" d="M9.14953 1.33337C8.77099 1.33337 8.44001 1.58851 8.34365 1.95458L7.92135 3.55891L6.57965 4.12451L5.55261 3.21077C5.22285 2.9174 4.72154 2.93202 4.40944 3.24412L2.74278 4.91078C2.44086 5.2127 2.41598 5.69398 2.68517 6.02541L3.58528 7.13367L3.03331 8.4916L1.47591 8.8552C1.0988 8.94323 0.832031 9.27946 0.832031 9.66671V11.3334C0.832031 11.7091 1.08352 12.0384 1.44604 12.1373L3.05578 12.5765L3.6229 13.9218L2.71008 14.9454C2.41607 15.2751 2.43041 15.7769 2.74278 16.0893L4.40944 17.756C4.71177 18.0583 5.19384 18.0828 5.52524 17.8126L6.6331 16.9095L7.95766 17.4544L8.35739 19.0374C8.45083 19.4074 8.78371 19.6667 9.16536 19.6667H10.832C11.2135 19.6667 11.5463 19.4076 11.6399 19.0378L12.0406 17.4541L13.4095 16.8871C13.5473 17.0026 13.7053 17.1383 13.8625 17.2752C14.0187 17.4112 14.1639 17.5394 14.2702 17.6337C14.3232 17.6808 14.3664 17.7193 14.3963 17.746L14.4416 17.7864C14.7711 18.0821 15.2749 18.069 15.588 17.756L17.2546 16.0893C17.5613 15.7826 17.5815 15.2919 17.3009 14.9611L16.3932 13.8906L16.9549 12.5339L18.5416 12.1216C18.9089 12.0261 19.1654 11.6946 19.1654 11.315V9.66671C19.1654 9.28561 18.9068 8.95306 18.5375 8.8591L16.9606 8.45791L16.4003 7.10449L17.3018 6.038C17.5815 5.70712 17.561 5.21713 17.2546 4.91078L15.588 3.24412C15.2804 2.93652 14.7879 2.91727 14.4572 3.19991L13.3986 4.10477L11.9975 3.5287L11.5838 1.95485C11.4876 1.58865 11.1565 1.33337 10.7779 1.33337H9.14953ZM15.5333 15.4536L14.9632 16.0237L14.957 16.0182C14.6492 15.7503 14.2528 15.4111 14.0292 15.2513C13.7952 15.084 13.4914 15.0492 13.2256 15.1593L11.0165 16.0743C10.7733 16.175 10.5921 16.3847 10.5275 16.6398L10.1833 18H9.81443L9.47084 16.6393C9.40619 16.3834 9.22406 16.1731 8.97989 16.0727L6.80822 15.1794C6.52544 15.063 6.20166 15.1109 5.96466 15.3041L5.05565 16.0451L4.47779 15.4673L5.21732 14.638C5.43141 14.3979 5.48821 14.0561 5.36326 13.7597L4.43409 11.5555C4.33468 11.3197 4.13242 11.1426 3.88552 11.0753L2.4987 10.6969V10.3279L3.83232 10.0166C4.09578 9.95504 4.31299 9.76947 4.41486 9.51884L5.31486 7.30467C5.42933 7.02306 5.38137 6.70146 5.18973 6.4655L4.45263 5.55795L5.0321 4.97848L5.86479 5.71931C6.10485 5.93288 6.44632 5.98941 6.7424 5.8646L8.94657 4.93543C9.1848 4.83501 9.36294 4.62969 9.42875 4.37967L9.7919 3.00004H10.1353L10.4911 4.35357C10.5575 4.60621 10.7385 4.8131 10.9801 4.91244L13.236 5.83994C13.5252 5.95885 13.8566 5.90584 14.0943 5.70267L14.9544 4.96754L15.5342 5.54738L14.7998 6.41625C14.5985 6.65435 14.547 6.98488 14.6662 7.27294L15.5804 9.48128C15.6809 9.72414 15.8902 9.90534 16.1449 9.97015L17.4987 10.3146V10.6706L16.1341 11.0252C15.8812 11.0909 15.6737 11.2715 15.5737 11.5129L14.6587 13.7229C14.5393 14.0114 14.5912 14.3425 14.7931 14.5807L15.5333 15.4536Z" fill="#2E3F49"/>
</svg>
